<svg version="1.1" id="Layer_1" xmlns="http://www.w3.org/2000/svg" xmlns:xlink="http://www.w3.org/1999/xlink" x="0px" y="0px"
	 width="100%" viewBox="0 0 500 500" enable-background="new 0 0 500 500" xml:space="preserve">
<path fill="#6467F1" opacity="1.000000" stroke="none" 
	d="
M407.541138,300.899109 
	C407.320007,301.577484 407.263855,301.972321 407.207947,302.666565 
	C407.041962,303.193207 406.875793,303.420502 406.355499,303.874634 
	C403.605499,304.952820 401.123047,305.027222 398.611603,305.020874 
	C387.949677,304.993866 377.287659,305.022308 366.625702,305.005219 
	C356.391144,304.988800 355.001007,303.635376 354.996887,293.541840 
	C354.981049,254.558960 354.994049,215.576096 354.979370,176.593216 
	C354.978729,174.939896 355.194550,173.269287 354.719635,171.313187 
	C352.863617,171.954681 351.873596,173.530182 350.666809,174.735519 
	C320.846222,204.521057 291.044250,234.325256 261.242432,264.129578 
	C260.182281,265.189819 259.128174,266.256165 258.056152,267.304382 
	C251.918335,273.305847 250.052521,273.369110 244.059677,267.406281 
	C229.534134,252.953491 215.069656,238.439377 200.579880,223.950684 
	C183.969635,207.341690 167.366058,190.725998 150.737503,174.135361 
	C149.468567,172.869324 148.425400,171.306641 146.586853,170.517136 
	C145.471497,172.219101 146.041809,174.070007 146.040070,175.794907 
	C146.000504,214.944336 146.011215,254.093811 146.006119,293.243286 
	C146.005859,295.241302 146.062103,297.241119 145.852066,299.235291 
	C145.510147,302.481720 143.831711,304.721893 140.505447,304.763275 
	C126.035812,304.943390 111.556656,305.676086 96.702209,304.261230 
	C96.063614,303.998230 95.821625,303.861755 95.231293,303.496521 
	C87.355949,281.410492 85.106682,258.767242 87.079605,235.979965 
	C89.991371,202.349106 102.422203,172.214142 124.130409,146.192917 
	C149.079788,116.286545 180.643372,97.141647 218.921692,89.680176 
	C249.924805,83.636833 280.386902,85.983490 309.972046,97.465569 
	C346.531769,111.654518 374.412109,136.038940 393.963684,169.858444 
	C402.734833,185.030457 408.373688,201.529831 412.068420,219.076782 
	C413.084808,221.744171 412.153229,224.151459 412.842896,226.742188 
	C413.103119,227.036591 413.006012,226.994888 413.027283,226.946533 
	C414.186981,233.850800 415.067169,240.821259 414.498260,248.347214 
	C414.501648,254.184647 414.490784,259.566650 414.528259,265.380920 
	C414.607819,266.091949 414.663116,266.370758 414.695618,267.070190 
	C413.347382,269.083160 413.413666,270.978149 413.514282,273.276215 
	C413.663055,274.188507 413.720062,274.710938 413.561584,275.609558 
	C412.053619,277.287750 412.580994,278.827209 412.889984,280.730957 
	C412.366913,282.844635 412.715485,284.793823 411.421265,286.717865 
	C411.263916,287.524384 411.202148,287.952057 411.089233,288.700714 
	C410.541260,289.403625 410.510773,289.972168 410.386780,290.799591 
	C410.270691,291.507660 410.204956,291.939545 410.088440,292.696045 
	C409.540894,293.403778 409.510773,293.973175 409.389557,294.802307 
	C409.277344,295.501648 409.212830,295.923920 409.102661,296.664307 
	C408.480286,298.146454 408.698273,299.605988 407.541138,300.899109 
z"/>
<path fill="#8B5CF6" opacity="1.000000" stroke="none" 
	d="
M128.205536,360.332703 
	C127.450867,359.548004 126.984489,358.921753 126.252228,358.164612 
	C125.444260,357.511047 124.699898,357.197083 124.195061,356.230652 
	C124.026176,355.999603 124.013351,355.987457 124.007393,355.980896 
	C122.905006,354.988129 121.946846,353.898346 121.194153,352.264679 
	C120.988777,352.028534 121.003845,351.998993 120.987991,352.003662 
	C119.927315,350.974365 118.936737,349.900604 118.196312,348.255432 
	C117.995186,348.014801 118.001686,347.998779 117.993484,348.001129 
	C117.210854,347.322906 116.833969,346.387787 116.152138,345.309021 
	C115.921852,345.117615 115.974854,345.053131 115.933365,345.057678 
	C115.121346,344.396271 114.418060,343.689789 114.126297,342.436401 
	C113.858727,342.298401 113.893822,342.165527 113.840034,342.122803 
	C112.527977,340.830048 111.733032,339.333893 111.114517,337.443451 
	C110.827599,337.295349 110.877144,337.177765 110.826416,337.139099 
	C110.726738,336.818054 110.677788,336.535645 110.845917,335.882446 
	C113.340721,333.623352 116.089592,334.004181 118.721642,333.998505 
	C136.217468,333.960815 153.713409,333.998657 171.209259,333.971283 
	C177.792206,333.960968 177.962097,333.798431 177.970001,327.262512 
	C177.997803,304.267914 177.950516,281.273254 178.013412,258.278809 
	C178.021362,255.371811 177.055298,251.500839 180.218658,250.128830 
	C183.423965,248.738617 185.497116,252.164932 187.541763,254.199112 
	C207.032349,273.589905 226.440887,293.063049 245.897675,312.487823 
	C250.975662,317.557495 251.023407,317.556305 256.109741,312.478882 
	C275.449646,293.172821 294.735077,273.812195 314.118866,254.550354 
	C316.261566,252.421112 318.357147,248.650528 321.779053,250.153152 
	C325.115662,251.618317 323.972046,255.729111 323.981750,258.783264 
	C324.054291,281.611023 324.001984,304.439056 324.030396,327.267029 
	C324.038513,333.802429 324.205231,333.960663 330.801758,333.971069 
	C348.130981,333.998413 365.460297,333.967499 382.789551,333.992096 
	C385.273743,333.995605 387.809113,333.728729 390.494629,335.182373 
	C390.994232,335.679749 391.148010,335.921814 391.239929,336.589478 
	C391.178009,337.015137 391.072388,337.088776 391.088409,337.151123 
	C390.152924,337.729279 390.693939,338.796783 389.932251,339.506714 
	C389.606415,339.510223 389.462158,339.588928 389.462585,339.671082 
	C386.169525,346.425720 381.377716,352.004639 376.260620,357.771027 
	C376.024323,358.023468 376.000000,358.000000 376.010742,358.012878 
	C375.849152,358.181915 375.676849,358.338043 375.287964,358.767578 
	C375.071411,359.040985 375.004669,359.005646 375.027161,359.035950 
	C374.585114,359.572296 374.193237,360.144989 373.409241,360.824158 
	C373.162170,361.063690 373.053711,361.073669 373.057678,361.127991 
	C372.877350,361.284546 372.693024,361.386841 372.376282,361.776306 
	C372.243896,362.063446 372.112122,362.101440 372.104675,362.169617 
	C369.030151,366.130737 365.810547,369.868835 361.356995,372.835297 
	C360.181671,373.868164 359.236816,374.653748 358.152100,375.716187 
	C355.231903,378.983429 352.050171,381.473083 348.274902,383.761658 
	C347.993195,383.949554 347.967529,383.962494 347.959564,383.974487 
	C333.920013,394.955475 318.274750,402.808289 301.243774,407.874268 
	C296.659149,409.237976 292.167419,410.996765 287.042694,411.803223 
	C285.260559,412.013184 283.886719,412.466583 282.119019,412.668060 
	C281.554138,412.814331 281.328491,412.872803 280.757812,412.985077 
	C278.841980,413.543640 277.177460,413.388580 275.226440,413.748657 
	C274.634430,413.723480 274.398651,413.674408 273.802673,413.568542 
	C271.633514,413.425293 270.164886,414.661713 268.027710,414.851562 
	C267.104523,414.881592 266.582001,414.789001 265.662323,414.566528 
	C263.210846,414.182129 261.346191,414.982605 258.985474,415.447693 
	C252.248108,415.408630 245.946716,415.727814 239.223816,415.201752 
	C237.662277,414.977905 236.523178,415.012329 234.977722,414.976257 
	C232.757462,414.567505 230.891098,414.546600 228.693817,414.105591 
	C227.797028,414.018799 227.283844,413.995483 226.390289,413.948761 
	C224.541046,413.531952 223.019150,413.423553 221.165344,413.039856 
	C220.025436,412.978943 219.267548,412.927765 218.219635,412.438446 
	C217.472366,412.220642 217.059662,412.185272 216.336411,412.131653 
	C201.077194,409.086517 186.812302,404.193024 173.254272,396.310059 
	C172.955795,396.065125 172.990585,395.997284 172.964447,396.025391 
	C168.868668,394.324524 165.145020,391.994202 161.273956,389.241302 
	C161.024139,388.996735 161.010254,388.987457 161.004440,388.981445 
	C160.235657,388.312439 159.185150,388.123352 158.238617,387.205750 
	C158.033615,386.986389 158.012741,386.985046 158.010681,386.974792 
	C156.783142,386.179321 155.392319,385.626984 154.235748,384.212463 
	C154.019424,383.984955 154.001160,383.998779 154.007050,383.988983 
	C152.397263,382.945892 150.566986,382.203003 149.171387,380.337036 
	C148.946320,380.106659 148.949020,380.029633 148.916168,380.049744 
	C148.255249,379.217651 147.098770,379.133087 146.220428,378.131226 
	C144.492584,376.389313 142.955063,374.884216 141.118378,373.250397 
	C139.386139,371.875000 137.640823,370.996704 136.264404,369.194153 
	C136.056015,368.950928 136.003693,368.997559 136.025375,368.970154 
	C135.389877,368.553955 134.717361,368.182526 134.202820,367.214294 
	C134.044052,366.975830 134.012711,366.986694 134.018143,366.971008 
	C132.269684,365.969574 131.322189,364.305786 130.120758,362.458618 
	C129.853592,362.286346 129.838898,362.142303 129.768967,362.123627 
	C129.631454,361.901550 129.563889,361.698181 129.196930,361.377625 
	C128.897568,361.260437 128.891022,361.123962 128.824387,361.108887 
	C128.669785,360.892914 128.581802,360.692047 128.205536,360.332703 
z"/>
<path fill="#FEFEFF" opacity="1.000000" stroke="none" 
	d="
M391.205475,336.304626 
	C370.062042,336.151947 349.250336,336.097534 328.438843,335.990509 
	C321.163635,335.953094 321.952057,336.895203 321.941986,329.721069 
	C321.907562,305.241791 321.928772,280.762390 321.928772,256.283051 
	C321.928772,254.478195 321.928772,252.673340 321.928772,250.478729 
	C319.624146,250.936844 318.653931,252.581741 317.454498,253.777786 
	C296.700867,274.472687 275.860779,295.083679 255.354996,316.021881 
	C251.539856,319.917450 249.690887,319.350494 246.216049,315.821320 
	C225.887375,295.174927 205.300522,274.782806 184.842239,254.263596 
	C183.562576,252.980103 182.634186,251.346405 181.276184,249.517044 
	C179.357147,252.143478 179.928665,254.008316 179.925613,255.697266 
	C179.880142,280.842621 179.801514,305.988831 179.988403,331.132874 
	C180.018341,335.157990 178.796127,336.116272 174.937149,336.085693 
	C153.956039,335.919495 132.972809,336.023071 111.526611,336.066406 
	C110.131981,335.921844 109.760628,335.173615 109.232841,334.165802 
	C109.093170,333.889099 109.013809,333.971069 109.064911,333.945740 
	C103.152504,324.518127 98.228851,314.646851 95.559013,303.400452 
	C108.594643,302.963623 121.590271,302.886658 134.586014,302.848419 
	C144.144470,302.820312 144.144547,302.842896 144.144547,293.036530 
	C144.144547,252.539261 144.144547,212.041992 144.144547,171.544724 
	C144.144547,169.743713 144.144547,167.942703 144.144547,165.816650 
	C146.489502,166.265915 147.421066,167.976074 148.627747,169.179947 
	C181.544403,202.019730 214.476395,234.844528 247.240845,267.835693 
	C250.272705,270.888519 251.711868,270.583588 254.557816,267.721710 
	C286.991302,235.106430 319.563019,202.628571 352.124207,170.140472 
	C353.485992,168.781784 354.570618,167.027084 357.344452,166.089905 
	C357.344452,168.303635 357.344452,170.207321 357.344452,172.111008 
	C357.344482,213.774857 357.411469,255.438980 357.248596,297.102203 
	C357.230865,301.636261 358.393372,303.055756 363.056030,302.955566 
	C377.215302,302.651337 391.385498,302.856995 406.054871,302.881439 
	C405.331116,311.108398 401.467377,318.273560 397.405884,325.760986 
	C397.185547,326.074310 396.937958,326.387604 396.916992,326.586121 
	C396.611664,327.338898 396.513123,327.953308 396.065430,328.701965 
	C395.803253,328.864380 395.941254,328.944305 395.887024,328.885834 
	C395.619202,329.395721 395.512177,329.998718 394.977264,330.639008 
	C394.684509,330.720215 394.960907,331.003906 394.817383,330.866821 
	C394.660278,331.378052 394.516693,331.991821 393.873840,332.499451 
	C393.559204,332.442322 393.461884,332.504395 393.450317,332.560944 
	C393.383514,333.712524 392.748077,334.581299 392.007965,335.633667 
	C391.710999,335.742218 391.981537,335.971100 391.853027,335.849030 
	C391.662109,335.945404 391.599670,336.163818 391.205475,336.304626 
z"/>
</svg>